


<!--                                                      Credit By:                                                  -->
<!--        __________________________________________________________________________________________________        -->
<!--            ==     == == =   ==     ==     ==   ==  ==   ==   ===   ===      ==      ===  ==     == == =          -->
<!--          ==  ==   ==    ==  ==     ==     ==   ==  ==  ==   == == == ==   ==  ==   == == ==     ==    ==         -->
<!--         ==    ==  == == =   ==     ==     ==   ==  == ==    == == == ==  ==    ==  == == ==     == == =          -->
<!--         == == ==  ==  ==    ==     ==     ==   ==  ==  ==   == == == ==  == == ==  == == ==     ==               -->
<!--         ==    ==  ==    ==  ==     == ==    ===    ==   ==  ==  ===  ==  ==    ==  ==  ===      ==               -->
<!--        __________________________________________________________________________________________________        -->










<svg xmlns="http://www.w3.org/2000/svg" xmlns:xlink="http://www.w3.org/1999/xlink" viewBox="0 0 1920 1080">
  <defs>
    <style>
      .cls-1 {
        clip-path: url(#clip-About);
      }

      .cls-2 {
        fill: rgba(239,248,255,0.5);
      }

      .cls-3 {
        fill: #f1f8ff;
      }

      .cls-4 {
        fill: #ecf4fb;
      }

      .cls-5 {
        fill: #15737d;
      }

      .cls-6 {
        fill: #176572;
      }

      .cls-7 {
        fill: #ffd7b3;
      }

      .cls-8 {
        fill: #0b4751;
      }

      .cls-9 {
        fill: #0c4651;
      }

      .cls-10 {
        fill: #ffac5c;
      }

      .cls-11 {
        fill: #0b5965;
      }

      .cls-12 {
        fill: #75c97e;
      }

      .cls-13 {
        fill: #72c27a;
      }

      .cls-14 {
        fill: url(#linear-gradient);
      }

      .cls-15 {
        fill: #fed8b1;
      }

      .cls-16 {
        fill: #fff;
      }

      .cls-17, .cls-18, .cls-19, .cls-20, .cls-22, .cls-25 {
        fill: none;
      }

      .cls-17 {
        stroke: #f67e49;
      }

      .cls-17, .cls-19 {
        stroke-width: 2px;
      }

      .cls-18, .cls-19 {
        stroke: #0c4651;
      }

      .cls-20 {
        stroke: #ebbc93;
      }

      .cls-21 {
        fill: #728787;
      }

      .cls-22 {
        stroke: #ebebeb;
        stroke-width: 3px;
        opacity: 0.75;
      }

      .cls-23 {
        fill: #2ebaa7;
      }

      .cls-24 {
        fill: #7f9494;
      }

      .cls-25 {
        stroke: #707070;
      }

      .cls-26 {
        fill: #d8d69b;
      }

      .cls-27 {
        fill: #b1af7c;
      }

      .cls-28 {
        fill: #c8c686;
      }

      .cls-29 {
        fill: #f7ffff;
      }

      .cls-30 {
        fill: #4f3c38;
      }

      .cls-31 {
        fill: #e65d69;
      }

      .cls-32 {
        fill: #f78366;
      }

      .cls-33 {
        fill: #30b482;
      }

      .cls-34 {
        fill: #f7dc7a;
      }

      .cls-35 {
        fill: #fcfdfe;
      }
    </style>
    <linearGradient id="linear-gradient" x1="0.61" y1="0.064" x2="0.871" y2="0.355" gradientUnits="objectBoundingBox">
      <stop offset="0" stop-color="#fff"/>
      <stop offset="0.326" stop-color="#f7fbf8"/>
      <stop offset="1" stop-color="#a6d2ab"/>
    </linearGradient>
    <clipPath id="clip-About">
      <rect width="1920" height="1080"/>
    </clipPath>
  </defs>
  <g id="About" class="cls-1">
    <rect class="cls-35" width="1920" height="1080"/>
    <g id="Group_894" data-name="Group 894" transform="translate(0 -1080)">
      <g id="Group_844" data-name="Group 844" transform="translate(10 61.831)">
        <path id="Path_1080" data-name="Path 1080" class="cls-2" d="M-18.771,1169.359c70.685-38.04,113.847-63.111,223.981,30.937s249.108,72.03,358.864,8.662c107.007-61.78,196.712,19.811,206.656,56.923,10.946,40.85,52.519,105.916,159.633,172.007,155.92,91.572,40.836,202.944,6.187,243.78-10.325,12.169-56.923,50.53-56.923,143.546,0,62.934-32.174,168.3-230.168,138.6-71.476-10.721-202.944-71.773-298.229,23.512-49.548,49.548-159.633,54.448-238.743,19.193S-37.333,2039.3-37.333,2039.3Z" transform="translate(0 -0.667)"/>
        <path id="Path_1081" data-name="Path 1081" class="cls-3" d="M-13.079,1977.065s52.592-4.022,129.006,47.333,145.711,25.987,219.959-13.922,99-54.758,218.1-20.418c71.582,20.638,223.672,11.446,223.672-89.1s2.475-107.35,74.248-173.554,28.152-175.1-49.5-206.038-88.479-53.211-99.925-87.241-11.447-60.017-59.708-87.241S553.061,1314.094,528,1242.012s-127.768-110.444-219.959-62.183-155.92,71.154-201.4,12.065S-27,1126-27,1126Z" transform="translate(-0.743)"/>
        <path id="Path_1079" data-name="Path 1079" class="cls-4" d="M-27.05,1864.384c131.171,117.559,149.733,2.475,227.693-47.024s85.385,2.475,215.319-27.224,133.646-118.8,99-188.094,38.361-94.047,75.485-137.359S558.27,1312.476,466.7,1364.449,272.416,1417.66,200.643,1349.6,44.179,1282.232-32,1373.111Z" transform="translate(-0.383 -12.612)"/>
      </g>
      <g id="Group_842" data-name="Group 842" transform="translate(-193 59)">
        <path id="Path_1041" data-name="Path 1041" class="cls-5" d="M188.216.421C-35.872,13.754-71.7,246.059,145.059,292.595c105.126,22.57,235.362,17.391,261.449-106.667C427.932,71.394,303.623-6.446,188.216.421Z" transform="matrix(1, -0.017, 0.017, 1, 381.339, 1557.637)"/>
        <path id="Path_1042" data-name="Path 1042" class="cls-6" d="M108.133.229C-20.609,7.492-41.191,134.033,83.338,159.382c60.4,12.294,135.219,9.473,150.207-58.1C245.854,38.89,174.436-3.511,108.133.229Z" transform="translate(510.746 1551.449) rotate(24)"/>
        <path id="Path_1044" data-name="Path 1044" class="cls-7" d="M1100,1837c5,20.667,21.333,17.667,21.333,17.667l3,6.667-14.333,4h-27.667s-5.583-2.5-5.583-2.583c3.5-7.417-1.75-19.75-1.75-19.75l12.667-7.667S1095,1816.333,1100,1837Z" transform="translate(-304 -15)"/>
        <path id="Path_1045" data-name="Path 1045" class="cls-8" d="M1070.667,1848.333l35.667-4s-19-112.333-43.667-160.333c-8.333-15.667-33.333-15.333-33.333-15.333L977,1671.333,1046.333,1778Z" transform="translate(-304 -15)"/>
        <path id="Path_1059" data-name="Path 1059" class="cls-9" d="M781.5,1558.5c32-30,26-54,19.5-77-24.944-88.263,111.5-72.5,98-18,0,33.061-26.5,26-15.5,78v17l-25,17.5L801,1565.75Z" transform="translate(-304 -15)"/>
        <path id="Path_1058" data-name="Path 1058" class="cls-7" d="M826.5,1535.75l-11.5,3L811.5,1567s72.5,4.5,72.5,2-15.75-30.25-15.75-30.25l-9.5-3v-10.5C885,1534.5,892.5,1492.5,890,1471.5c2-9.5-5.75-8-3-17-39.5-17-28,35.5-60.5,33.5,0,0,7-6,4-11-8.5-30.5-32.5,6.5-4,15C830.5,1514,826.5,1535.75,826.5,1535.75Z" transform="translate(-304 -15)"/>
        <path id="Path_1040" data-name="Path 1040" class="cls-10" d="M1121.5,1854c-1.5,6-9.5,8.5-9.5,8.5s-10,3.5-35.5,0c1-1-2.125,5.625,11,7.5s26.966,0,41.5,0S1131.5,1854,1121.5,1854Z" transform="translate(-304 -15)"/>
        <path id="Path_1048" data-name="Path 1048" class="cls-7" d="M15.79-.323C30.085,5.038,31.772,2.971,46.073,5.028c8.931,5.158,5.442,15.28,5.442,15.28l-30.73,9.519S11.476,23.152.5,16.584C-2.856,9.151,4.743,1.645,15.79-.323Z" transform="translate(828.397 1806.801) rotate(9)"/>
        <path id="Path_1047" data-name="Path 1047" class="cls-10" d="M25.149-.515C26.383,15.181.282,23.871-.559,23.871c16.822,4.12,29.868,2.047,37.449-2.088C51.631,12.687,35.246-.108,25.149-.515Z" transform="translate(847.78 1815.483) rotate(9)"/>
        <path id="Path_1046" data-name="Path 1046" class="cls-11" d="M979.667,1690.333s5.333.667,23.667,0,25,1.333,41,15.333c37.667,32.667,106.667,118,107.333,117.667-6.667,18.667-20.667,24.333-21,24.333-5.972,0-31.325-19.067-56.667-40.667-29.606-25.234-62-51-62-51l-127,19-53.333-61L908,1675.667Z" transform="translate(-304 -15)"/>
        <path id="Path_1055" data-name="Path 1055" class="cls-12" d="M800.5,1573c-7.443-12.891-18.625-17.625-31.625-20.375-2.5,38,21.275,96.625,29.525,111.375,8,6.75,16.957,10.286,34.457,21.286-1-7.75,9.893-17.786,9.893-17.786-9.25-10.75-19.083-14.667-26.75-26C811.667,1608.5,807.125,1584.475,800.5,1573Z" transform="translate(-198 -29)"/>
        <path id="Path_1052" data-name="Path 1052" class="cls-13" d="M805.667,1666.667S801.833,1608.5,788.5,1610.5c-6.16.924-9.667-8.833-10-25.5-1-22.333-3.312-36.291,36.5-46.333,12.5,32.333,87.417,42.792,46.75-2.042,18.167,1.333,38.781,5.806,49.25,44.875,9.586,34.342-24.476,30.173,17.667,103.167C902,1695.333,845.333,1716,845.333,1716Z" transform="translate(-304 -15)"/>
        <path id="Path_1050" data-name="Path 1050" class="cls-14" d="M968,1663.4H951.8c-6.8,0-9.8,3.2-9.8,3.2L876.8,1712l79,8,18.8-44.4Z" transform="translate(-304 -15)"/>
        <path id="Path_1056" data-name="Path 1056" class="cls-15" d="M907.021,1663.255c15.345-2.044,16.8,2.952,21.165,9.311s-2.778,15.9-6.746,10.673-9.524-1.817-14.419-1.136S896.835,1665.527,907.021,1663.255Z" transform="translate(1017.725 -218.645) rotate(40)"/>
        <path id="Path_1043" data-name="Path 1043" class="cls-5" d="M84.584.173C37.454,2.738-7.337,8.858-14.505,34.015c-8.016,28.127,27.872,76.067,79.694,86.243,47.243,9.276,130.6-2.6,142.321-53.592C178.446,1.985,118.274-1.66,84.584.173Z" transform="matrix(0.966, 0.259, -0.259, 0.966, 476.815, 1662.898)"/>
        <path id="Path_1049" data-name="Path 1049" class="cls-16" d="M955.5,1720.5c27.7-16.5,55.775-37.1,75.9-53.1,2.8-4.2,4.6-10.9,4.6-10.9s14.6-61.1,19.4-79.9c1.2-4.2-.2-5.8-5.4-2.6-18.6,10.6-50.6,27.4-68.5,38.5-9.5,5.9-9.1,13.5-10.5,20C967.4,1656.8,959,1690.6,955.5,1720.5Z" transform="translate(-304 -15)"/>
        <path id="Path_1054" data-name="Path 1054" class="cls-15" d="M910.69,1663.349c25.019-2.458,27.391,3.551,34.508,11.2s-4.529,19.12-11,12.838-15.529-2.185-23.509-1.366S894.083,1666.081,910.69,1663.349Z" transform="matrix(0.995, 0.105, -0.105, 0.995, -129.126, -91.28)"/>
        <path id="Path_1053" data-name="Path 1053" class="cls-12" d="M805.5,1570.307C800,1545.115,776,1541,773.5,1579s5.5,62,15.5,100,78.5,19.5,122,17.5c-4.5-9.5-2-24.5-2-24.5-18,3.5-64.5-7-92-6.5A523.664,523.664,0,0,0,805.5,1570.307Z" transform="translate(-304 -15)"/>
        <path id="Path_1057" data-name="Path 1057" class="cls-12" d="M820.25,1660.75c8,6.75-5.321,13.536,12.179,24.536.933-7.933,12-15.714,12-15.714-9.25-10.75-11.929-1.321-18.179-14.571Z" transform="translate(-199 -30)"/>
        <path id="Path_1060" data-name="Path 1060" class="cls-5" d="M981.667,1762c-19.333,14.667-28.333,5-28.333,5s-.667,17,2.667,17.333S981.667,1762,981.667,1762Z" transform="translate(-304 -15)"/>
        <path id="Path_1061" data-name="Path 1061" class="cls-17" d="M870.5,1511.75s-5.5,5.75-12.75-2.75" transform="translate(-304 -15)"/>
        <path id="Path_1062" data-name="Path 1062" class="cls-18" d="M867,1482c6.5,14.5,2.5,20-3,16.5" transform="translate(-304 -11)"/>
        <ellipse id="Ellipse_84" data-name="Ellipse 84" class="cls-9" cx="2.5" cy="4" rx="2.5" ry="4" transform="translate(548 1464)"/>
        <ellipse id="Ellipse_85" data-name="Ellipse 85" class="cls-9" cx="2.5" cy="4" rx="2.5" ry="4" transform="translate(568 1464)"/>
        <path id="Path_1063" data-name="Path 1063" class="cls-19" d="M870.359,1475c2.141-4.5,11.141,0,11.141,0" transform="translate(-304 -16)"/>
        <path id="Path_1064" data-name="Path 1064" class="cls-19" d="M857.75,1472.23c-2.25-4.73-12.75,0-12.75,0" transform="translate(-304 -13)"/>
        <path id="Path_1065" data-name="Path 1065" class="cls-20" d="M858.75,1526a38.547,38.547,0,0,1-21.25-19.5" transform="translate(-304 -15)"/>
      </g>
      <g id="Group_841" data-name="Group 841" transform="translate(-957.228 885)">
        <path id="Path_1067" data-name="Path 1067" class="cls-21" d="M1602.9,910.333,1601.228,903c11-3,33.667-3,43.667,0v5.667l-23.667,3.667Z"/>
        <path id="Path_1037" data-name="Path 1037" class="cls-10" d="M1629.333,906.333c9.333-8.667,20.833-23.833,24-39.667S1651,838.333,1641,842.333s-8.667-3.333-9-14A104.106,104.106,0,0,0,1628,801c-5.667-17.333-15-9.167-20,2.333s-6.333,22,1,43.667,6,31,6,31l7.667,28.333S1620,915,1629.333,906.333Z"/>
        <path id="Path_1039" data-name="Path 1039" class="cls-22" d="M1617,808.4c-10.4,47.2,23.2,21.4,10.6,100.8"/>
        <path id="Path_1036" data-name="Path 1036" class="cls-23" d="M1614.333,908.333c-6.667-14.667-23-40-41-48.333s4.333-26.333,21.667-15.667,29,27.333,32.667,64S1621,923,1614.333,908.333Z"/>
        <path id="Path_1038" data-name="Path 1038" class="cls-22" d="M1585,853c27.667,10.333,38,39.667,37.667,55.333"/>
        <path id="Path_1035" data-name="Path 1035" class="cls-24" d="M1601,903l3.667,46.667a37.344,37.344,0,0,0,37.333,0L1645.333,903C1642.9,908.667,1602.9,910,1601,903Z"/>
      </g>
      <g id="Group_843" data-name="Group 843" transform="matrix(1, 0.017, -0.017, 1, -796.561, 76.671)">
        <path id="Path_1068" data-name="Path 1068" class="cls-25" d="M1186.5,1781Z" transform="translate(0 -10.703)"/>
        <path id="Path_1070" data-name="Path 1070" class="cls-26" d="M1023.5,1771.48c-5.25-27.816,45.795-41.116,85.75-41.231s87,6.9,85.5,35.51c-1.75,28.013-88.5,36.694-88.5,36.694S1033.75,1800.677,1023.5,1771.48Z" transform="translate(0 0)"/>
        <path id="Path_1074" data-name="Path 1074" class="cls-27" d="M13.861.117a43.912,43.912,0,0,1,3.867,12.764c.595,8.1-14.3,10.063-16.151,5.559S.07,3.24.07,3.24Z" transform="translate(1145.782 1790.708) rotate(7)"/>
        <path id="Path_1073" data-name="Path 1073" class="cls-28" d="M14.373-.052s6.587,40.025,7.209,50.889c.575,7.507-17.236,9.855-18.1.985-1.1-11.263-3.493-48-3.493-48Z" transform="translate(1156.9 1793.985) rotate(-3)"/>
        <path id="Intersection_3" data-name="Intersection 3" class="cls-27" d="M.6,9.687C.229,6.559,0,4.616,0,4.616L14.164,0s.234,1.068.63,2.9L.913,9.785Z" transform="translate(1157.086 1793.181)"/>
        <path id="Path_1072" data-name="Path 1072" class="cls-27" d="M1040.25,1808.25a50.391,50.391,0,0,0-3.75,12.823c-.75,8.088,12.25,9.667,14,5.129s1.75-15.19,1.75-15.19Z" transform="translate(0 -16.45)"/>
        <path id="Path_1071" data-name="Path 1071" class="cls-28" d="M1049.5,1814.5s-6.25,38.864-6.75,49.714c-.5,7.5,18.462,10.039,19.25,1.184,1-11.245,3-47.938,3-47.938Z" transform="translate(0 -17.768)"/>
        <path id="Intersection_2" data-name="Intersection 2" class="cls-27" d="M0,3.679C.362,1.375.583,0,.583,0l1.47.281L16.077,3.072c-.031.561-.174,3.176-.387,6.949Z" transform="translate(1048.917 1796.732)"/>
        <path id="Path_1069" data-name="Path 1069" class="cls-28" d="M1023.25,1777.614l1,10.258c2.47,15.008,40.75,27.027,81.75,26.238,47-.592,85.714-16.7,88.75-30.775V1767.75C1193,1805.43,1045,1820.423,1023.25,1777.614Z" transform="translate(0 -7.909)"/>
      </g>
      <g id="Group_882" data-name="Group 882" transform="translate(272 1807.64)">
        <path id="Path_1111" data-name="Path 1111" class="cls-29" d="M1572.222,697.317s-3.892,14.551-6.649,22.011,12.828,11.028,13.3,0S1572.222,697.317,1572.222,697.317Z" transform="translate(-1548.222 -697.317)"/>
        <rect id="Rectangle_1460" data-name="Rectangle 1460" class="cls-30" width="1.946" height="11.676" rx="0.973" transform="translate(23.351 21.849)"/>
        <path id="Path_1112" data-name="Path 1112" class="cls-31" d="M9.081,0H38.919C43.352,0,48,5.567,48,11.027s-4.054,11.027-8,11.027H8.432C4.486,22.054,0,16,0,11.027S2.991,0,9.081,0Z" transform="translate(0 30.93)"/>
        <path id="Intersection_4" data-name="Intersection 4" class="cls-32" d="M0,.269A8.1,8.1,0,0,1,2.107,0H32.4a5.934,5.934,0,0,1,2.387.532c-2.8,3.931-9.718,8.637-17.748,8.637C8.978,9.169,1.954,3.742,0,.269Z" transform="translate(6.748 30.95)"/>
      </g>
      <g id="Group_883" data-name="Group 883" transform="translate(-1421 1122.333)">
        <path id="Path_1117" data-name="Path 1117" class="cls-33" d="M13.612,2.028S10.072-.309,6.669.035,0,3.4,0,3.4,3.678,5.741,7.081,5.4,13.612,2.028,13.612,2.028Z" transform="translate(1670.527 726.21) rotate(25)"/>
        <path id="Path_1118" data-name="Path 1118" class="cls-33" d="M13.612,2.028S10.072-.309,6.669.035,0,3.4,0,3.4,3.678,5.741,7.081,5.4,13.612,2.028,13.612,2.028Z" transform="matrix(0.899, -0.438, 0.438, 0.899, 1667.415, 739.102)"/>
        <path id="Path_1115" data-name="Path 1115" class="cls-29" d="M1705.506,715.667a17.885,17.885,0,0,1,4.125,4.469,6.275,6.275,0,0,1,.55,4.331,6.5,6.5,0,0,1,4.262-.619,20.316,20.316,0,0,1,5.637,2.475,25.94,25.94,0,0,1-3.437,5.293,5,5,0,0,1-3.369,1.719,5.606,5.606,0,0,1,1.787,3.644,22.69,22.69,0,0,1-.619,6.256,16.04,16.04,0,0,1-5.706-1.1,7.485,7.485,0,0,1-3.231-3.231,4.555,4.555,0,0,1-2.612,2.887,23.7,23.7,0,0,1-6.394,1.444,19.627,19.627,0,0,1-.481-5.981,7.1,7.1,0,0,1,1.925-3.919,5.648,5.648,0,0,1-3.781-1.719,19.752,19.752,0,0,1-3.162-5.293,18.95,18.95,0,0,1,5.5-2.475,3.122,3.122,0,0,0,5.019-3.712A18.454,18.454,0,0,1,1705.506,715.667Z" transform="translate(-18.409)"/>
        <path id="Path_1116" data-name="Path 1116" class="cls-33" d="M1673.279,759.611s-3.54-2.337-6.943-1.994-6.668,3.369-6.668,3.369,3.678,2.337,7.081,1.994S1673.279,759.611,1673.279,759.611Z" transform="translate(0 -24.627)"/>
        <path id="Path_1119" data-name="Path 1119" class="cls-34" d="M1718.857,739a8.887,8.887,0,0,1,1.2,2.681,3.333,3.333,0,0,1-.344,2.131,5.5,5.5,0,0,1,2.062-1.1,6.613,6.613,0,0,1,2.475,0,6.605,6.605,0,0,1-1.925,1.822,4.214,4.214,0,0,1-2.269.378,9.179,9.179,0,0,1,1.547,2.1,4.875,4.875,0,0,1,.447,2.1,4.6,4.6,0,0,1-1.994-1.134,6.35,6.35,0,0,1-1.2-2.234,4.539,4.539,0,0,1-1.066,1.891,8.649,8.649,0,0,1-2.2,1.478,5.944,5.944,0,0,1,.481-2.3,6.518,6.518,0,0,1,1.512-1.891,5.224,5.224,0,0,1-2.234-.55,5.647,5.647,0,0,1-1.684-1.65,3.6,3.6,0,0,1,2.166-.206,7.741,7.741,0,0,1,2.44,1.306,3.41,3.41,0,0,1-.481-2.131A8.223,8.223,0,0,1,1718.857,739Z" transform="translate(-31.726 -13.709)"/>
      </g>
    </g>
  </g>
</svg>
