


<!--                                                      Credit By:                                                  -->
<!--        __________________________________________________________________________________________________        -->
<!--            ==     == == =   ==     ==     ==   ==  ==   ==   ===   ===      ==      ===  ==     == == =          -->
<!--          ==  ==   ==    ==  ==     ==     ==   ==  ==  ==   == == == ==   ==  ==   == == ==     ==    ==         -->
<!--         ==    ==  == == =   ==     ==     ==   ==  == ==    == == == ==  ==    ==  == == ==     == == =          -->
<!--         == == ==  ==  ==    ==     ==     ==   ==  ==  ==   == == == ==  == == ==  == == ==     ==               -->
<!--         ==    ==  ==    ==  ==     == ==    ===    ==   ==  ==  ===  ==  ==    ==  ==  ===      ==               -->
<!--        __________________________________________________________________________________________________        -->










<svg xmlns="http://www.w3.org/2000/svg" xmlns:xlink="http://www.w3.org/1999/xlink" viewBox="0 0 1920 1080">
  <defs>
    <style>
      .cls-1 {
        clip-path: url(#clip-Home);
      }

      .cls-2 {
        fill: #4576d7;
      }

      .cls-3 {
        fill: #4b7de0;
      }

      .cls-4, .cls-6 {
        fill: none;
      }

      .cls-4 {
        stroke: #81b1db;
        stroke-width: 45px;
        opacity: 0.1;
      }

      .cls-5 {
        stroke: none;
      }

      .cls-7 {
        fill: #fcfdfe;
      }
    </style>
    <clipPath id="clip-Home">
      <rect width="1920" height="1080"/>
    </clipPath>
  </defs>
  <g id="Home" class="cls-1">
    <rect class="cls-7" width="1920" height="1080"/>
    <g id="Group_893" data-name="Group 893">
      <g id="Group_891" data-name="Group 891">
        <path id="Path_1022" data-name="Path 1022" class="cls-2" d="M372,0c-44,148,70,208,174,204,198-18,276,123,226,247s12,192,200,188c128-2,214,149,220,287s174,190,292,6c172.1-268.36,324,64,446,46,2-2,10-998,10-998Z"/>
        <path id="Intersection_1" data-name="Intersection 1" class="cls-3" d="M1458.764,856c-152-156-186-56-260,0s-284,166-296-30-44-302.666-202.667-229.334c-93.036,43-161.773,35.8-217.775-.358-25.855-27.212-26.586-68.2-3.557-125.309,28.726-71.241,15.2-148.1-39.052-197.183C450.473,136.436,353.478,51.569,308.678,20H1630.765V908s-6.524,33.964-40.49,33.959C1564.8,941.955,1523.9,922.85,1458.764,856Z" transform="translate(293.236 -20)"/>
      </g>
      <g id="Ellipse_77" data-name="Ellipse 77" class="cls-4" transform="translate(-97 281)">
        <circle class="cls-5" cx="85" cy="85" r="85"/>
        <circle class="cls-6" cx="85" cy="85" r="62.5"/>
      </g>
    </g>
  </g>
</svg>
