


<!--                                                      Credit By:                                                  -->
<!--        __________________________________________________________________________________________________        -->
<!--            ==     == == =   ==     ==     ==   ==  ==   ==   ===   ===      ==      ===  ==     == == =          -->
<!--          ==  ==   ==    ==  ==     ==     ==   ==  ==  ==   == == == ==   ==  ==   == == ==     ==    ==         -->
<!--         ==    ==  == == =   ==     ==     ==   ==  == ==    == == == ==  ==    ==  == == ==     == == =          -->
<!--         == == ==  ==  ==    ==     ==     ==   ==  ==  ==   == == == ==  == == ==  == == ==     ==               -->
<!--         ==    ==  ==    ==  ==     == ==    ===    ==   ==  ==  ===  ==  ==    ==  ==  ===      ==               -->
<!--        __________________________________________________________________________________________________        -->










<svg xmlns="http://www.w3.org/2000/svg" viewBox="0 0 25 19.642">
  <defs>
    <style>
      .cls-1 {
        fill: #aeaeae;
      }
    </style>
  </defs>
  <path id="Union_4" data-name="Union 4" class="cls-1" d="M2.233,19.642a2.142,2.142,0,0,1-1.577-.656A2.149,2.149,0,0,1,0,17.41V6.334A7.406,7.406,0,0,0,1.41,7.547q5.049,3.43,6.934,4.812c.529.39.96.7,1.289.914a7.943,7.943,0,0,0,1.32.669,3.992,3.992,0,0,0,1.534.342h.027a4,4,0,0,0,1.534-.342,7.9,7.9,0,0,0,1.319-.669c.329-.217.759-.523,1.289-.914q2.372-1.717,6.947-4.812A7.7,7.7,0,0,0,25,6.334V17.41a2.239,2.239,0,0,1-2.233,2.231ZM12.5,12.5h-.014a2.2,2.2,0,0,1-.7-.127,4.107,4.107,0,0,1-.8-.375c-.285-.167-.525-.319-.725-.454s-.452-.312-.754-.531l-.593-.425Q7.646,9.7,5.26,8.042T2.4,6.055A6.93,6.93,0,0,1,.768,4.443,3.255,3.255,0,0,1,0,2.539,2.814,2.814,0,0,1,.579.725,2,2,0,0,1,2.233,0H22.767a2.154,2.154,0,0,1,1.569.656A2.134,2.134,0,0,1,25,2.231a3.691,3.691,0,0,1-.685,2.108,6.593,6.593,0,0,1-1.7,1.716q-5.248,3.641-6.53,4.533l-.593.425c-.3.219-.553.4-.753.531s-.441.287-.726.454a4.222,4.222,0,0,1-.8.375,2.193,2.193,0,0,1-.7.127Z"/>
</svg>
