


<!--                                                      Credit By:                                                  -->
<!--        __________________________________________________________________________________________________        -->
<!--            ==     == == =   ==     ==     ==   ==  ==   ==   ===   ===      ==      ===  ==     == == =          -->
<!--          ==  ==   ==    ==  ==     ==     ==   ==  ==  ==   == == == ==   ==  ==   == == ==     ==    ==         -->
<!--         ==    ==  == == =   ==     ==     ==   ==  == ==    == == == ==  ==    ==  == == ==     == == =          -->
<!--         == == ==  ==  ==    ==     ==     ==   ==  ==  ==   == == == ==  == == ==  == == ==     ==               -->
<!--         ==    ==  ==    ==  ==     == ==    ===    ==   ==  ==  ===  ==  ==    ==  ==  ===      ==               -->
<!--        __________________________________________________________________________________________________        -->










<svg xmlns="http://www.w3.org/2000/svg" viewBox="0 0 25 25">
  <defs>
    <style>
      .cls-1 {
        fill: #aeaeae;
      }
    </style>
  </defs>
  <g id="icon_chat-room" transform="translate(-350 -111)">
    <path id="Union_11" data-name="Union 11" class="cls-1" d="M16.625-374.687H8.813l2.856-3.126h9.644a1.562,1.562,0,0,0,1.562-1.562v-9.374h1.562A1.563,1.563,0,0,1,26-387.187v10.936a1.564,1.564,0,0,1-1.562,1.564H21.313V-370ZM5.687-380.938H2.562A1.563,1.563,0,0,1,1-382.5v-10.938A1.563,1.563,0,0,1,2.562-395H18.187a1.563,1.563,0,0,1,1.562,1.562V-382.5a1.562,1.562,0,0,1-1.562,1.562H10.375l-4.688,4.687Z" transform="translate(349 506)"/>
  </g>
</svg>
