


<!--                                                      Credit By:                                                  -->
<!--        __________________________________________________________________________________________________        -->
<!--            ==     == == =   ==     ==     ==   ==  ==   ==   ===   ===      ==      ===  ==     == == =          -->
<!--          ==  ==   ==    ==  ==     ==     ==   ==  ==  ==   == == == ==   ==  ==   == == ==     ==    ==         -->
<!--         ==    ==  == == =   ==     ==     ==   ==  == ==    == == == ==  ==    ==  == == ==     == == =          -->
<!--         == == ==  ==  ==    ==     ==     ==   ==  ==  ==   == == == ==  == == ==  == == ==     ==               -->
<!--         ==    ==  ==    ==  ==     == ==    ===    ==   ==  ==  ===  ==  ==    ==  ==  ===      ==               -->
<!--        __________________________________________________________________________________________________        -->










<svg xmlns="http://www.w3.org/2000/svg" viewBox="0 0 582.331 457">
  <defs>
    <style>
      .cls-1 {
        fill: #ffe8b2;
      }

      .cls-2 {
        fill: #fff;
      }

      .cls-3 {
        fill: #603141;
      }

      .cls-4 {
        fill: #f59784;
      }

      .cls-5 {
        fill: #ffa897;
      }

      .cls-6 {
        fill: #4a3a4f;
      }

      .cls-7 {
        fill: #e9e6ed;
      }

      .cls-8 {
        fill: #7785d4;
      }

      .cls-9 {
        fill: #fbf7ff;
      }

      .cls-10, .cls-11 {
        fill: #f7636c;
      }

      .cls-10 {
        opacity: 0.2;
      }

      .cls-12 {
        fill: #ffd280;
      }

      .cls-13 {
        fill: #ffc466;
      }

      .cls-14 {
        fill: #4f3c38;
      }

      .cls-15 {
        fill: #e65d69;
      }

      .cls-16 {
        fill: #f78366;
      }

      .cls-17 {
        fill: #30b482;
      }

      .cls-18 {
        fill: #f7ffff;
      }

      .cls-19 {
        fill: #f7dc7a;
      }
    </style>
  </defs>
  <g id="Group_897" data-name="Group 897" transform="translate(-1180 -295)">
    <g id="Group_874" data-name="Group 874" transform="translate(-31 -70)">
      <g id="Group_870" data-name="Group 870" transform="translate(1211 741.828)">
        <rect id="Rectangle_1462" data-name="Rectangle 1462" class="cls-1" width="178.342" height="35.396" rx="14" transform="translate(0.681 0)"/>
        <path id="Union_14" data-name="Union 14" class="cls-2" d="M13.5,35.4A13.5,13.5,0,0,1,0,21.9V13.5A13.5,13.5,0,0,1,13.5,0h90.189a2.492,2.492,0,0,1,.595.071c5.74.414,12.864,2.664,13.136,11.587.28,9.167-5.995,12.383-11.841,12.731a2.49,2.49,0,0,1-.756.117H20.766c-.079,0-.154,0-.226-.011-4.392-.132-8.968-1.527-8.968-6.909,0-5.116,3.472-6.457,8.3-6.673a2.538,2.538,0,0,1,.322-.021h.259q.525-.013,1.069-.013v.013h82.162a2.5,2.5,0,0,1,2.5,2.5v.446a2.5,2.5,0,0,1-2.5,2.5H20.2a2.536,2.536,0,0,1-.533-.057c-1.629-.025-3.286.119-3.286,1.305,0,1.712,2.44,1.478,5.275,1.475h83.169l.1,0a5.844,5.844,0,0,0,5.348-6.512c-.194-3.641-3.244-5.449-7.1-5.743h-82.3C10.285,6.808,7.6,12.877,7.6,18.266c0,5.346,5.584,10.247,13.1,10.323h89.8a2.5,2.5,0,0,1,2.5,2.5V32.9a2.5,2.5,0,0,1-2.5,2.5h-97Z" transform="translate(0 0)"/>
      </g>
      <g id="Group_871" data-name="Group 871" transform="translate(1211 702.347)">
        <rect id="Rectangle_1462-2" data-name="Rectangle 1462" class="cls-1" width="178.342" height="35.396" rx="14" transform="translate(0.681 0)"/>
        <path id="Union_14-2" data-name="Union 14" class="cls-2" d="M13.5,35.4A13.5,13.5,0,0,1,0,21.9V13.5A13.5,13.5,0,0,1,13.5,0h90.189a2.492,2.492,0,0,1,.595.071c5.74.414,12.864,2.664,13.136,11.587.28,9.167-5.995,12.383-11.841,12.731a2.49,2.49,0,0,1-.756.117H20.766c-.079,0-.154,0-.226-.011-4.392-.132-8.968-1.527-8.968-6.909,0-5.116,3.472-6.457,8.3-6.673a2.538,2.538,0,0,1,.322-.021h.259q.525-.013,1.069-.013v.013h82.162a2.5,2.5,0,0,1,2.5,2.5v.446a2.5,2.5,0,0,1-2.5,2.5H20.2a2.536,2.536,0,0,1-.533-.057c-1.629-.025-3.286.119-3.286,1.305,0,1.712,2.44,1.478,5.275,1.475h83.169l.1,0a5.844,5.844,0,0,0,5.348-6.512c-.194-3.641-3.244-5.449-7.1-5.743h-82.3C10.285,6.808,7.6,12.877,7.6,18.266c0,5.346,5.584,10.247,13.1,10.323h89.8a2.5,2.5,0,0,1,2.5,2.5V32.9a2.5,2.5,0,0,1-2.5,2.5h-97Z" transform="translate(0 0)"/>
      </g>
      <g id="Group_872" data-name="Group 872" transform="translate(1211 662.867)">
        <rect id="Rectangle_1462-3" data-name="Rectangle 1462" class="cls-1" width="178.342" height="35.396" rx="14" transform="translate(0.681 0)"/>
        <path id="Union_14-3" data-name="Union 14" class="cls-2" d="M13.5,35.4A13.5,13.5,0,0,1,0,21.9V13.5A13.5,13.5,0,0,1,13.5,0h90.189a2.492,2.492,0,0,1,.595.071c5.74.414,12.864,2.664,13.136,11.587.28,9.167-5.995,12.383-11.841,12.731a2.49,2.49,0,0,1-.756.117H20.766c-.079,0-.154,0-.226-.011-4.392-.132-8.968-1.527-8.968-6.909,0-5.116,3.472-6.457,8.3-6.673a2.538,2.538,0,0,1,.322-.021h.259q.525-.013,1.069-.013v.013h82.162a2.5,2.5,0,0,1,2.5,2.5v.446a2.5,2.5,0,0,1-2.5,2.5H20.2a2.536,2.536,0,0,1-.533-.057c-1.629-.025-3.286.119-3.286,1.305,0,1.712,2.44,1.478,5.275,1.475h83.169l.1,0a5.844,5.844,0,0,0,5.348-6.512c-.194-3.641-3.244-5.449-7.1-5.743h-82.3C10.285,6.808,7.6,12.877,7.6,18.266c0,5.346,5.584,10.247,13.1,10.323h89.8a2.5,2.5,0,0,1,2.5,2.5V32.9a2.5,2.5,0,0,1-2.5,2.5h-97Z" transform="translate(0 0)"/>
      </g>
    </g>
    <g id="Group_866" data-name="Group 866" transform="translate(1261 295)">
      <g id="Group_865" data-name="Group 865" transform="translate(0 0)">
        <g id="Group_859" data-name="Group 859" transform="translate(0)">
          <g id="Group_854" data-name="Group 854" transform="translate(0 34.48)">
            <path id="Path_1085" data-name="Path 1085" class="cls-3" d="M120.111,103.194S94.485,22.187,143.032,30.017s74.315-6.264,98.375-10.535c37.3-6.691,57.943,11.389,41.144,86.559Z" transform="translate(48.053 -18.197)"/>
            <path id="Path_1086" data-name="Path 1086" class="cls-4" d="M286.907,95.335l-166.569.427a9.51,9.51,0,0,1-9.539-9.4h0a9.51,9.51,0,0,1,9.4-9.539L286.765,76.4a9.51,9.51,0,0,1,9.539,9.4h0A9.33,9.33,0,0,1,286.907,95.335Z" transform="translate(46.971 6.461)"/>
            <path id="Path_1087" data-name="Path 1087" class="cls-5" d="M234.575,373.729l-68.051.427a33.021,33.021,0,0,1-33.029-31.463L119.827,87.145C118.119,58.672,140.47,34.47,168.8,34.327l59.509-.427a49.522,49.522,0,0,1,49.544,52.248l-10.535,255.69A33.245,33.245,0,0,1,234.575,373.729Z" transform="translate(50.757 -11.545)"/>
            <g id="Group_848" data-name="Group 848" transform="translate(196.992 83.609)">
              <path id="Path_1088" data-name="Path 1088" class="cls-3" d="M155.078,85.574a2.026,2.026,0,0,1-2.278-.712c-1.424-1.851-3.559-3.986-5.552-3.7-2.278.427-4.129,4.129-4.7,5.979a2.161,2.161,0,0,1-4.129-1.281c.285-.854,2.7-7.973,8.115-8.827,3.132-.569,6.406,1.139,9.681,5.268a2.08,2.08,0,0,1-.427,2.99C155.506,85.431,155.221,85.431,155.078,85.574Z" transform="translate(-138.349 -76.925)"/>
            </g>
            <g id="Group_849" data-name="Group 849" transform="translate(285.883 83.609)">
              <path id="Path_1089" data-name="Path 1089" class="cls-3" d="M202.371,85.574a2.026,2.026,0,0,0,2.278-.712c1.424-1.851,3.559-3.986,5.552-3.7,2.278.427,4.129,4.129,4.7,5.979a2.161,2.161,0,0,0,4.129-1.281c-.285-.854-2.7-7.973-8.115-8.827-3.132-.569-6.406,1.139-9.681,5.268a2.08,2.08,0,0,0,.427,2.99C201.944,85.431,202.229,85.431,202.371,85.574Z" transform="translate(-200.788 -76.925)"/>
            </g>
            <path id="Path_1090" data-name="Path 1090" class="cls-6" d="M128.5,233.8l1.281,24.629c1,17.653,15.518,31.605,33.029,31.463l68.051-.427a33.02,33.02,0,0,0,32.6-31.89l1-24.772Z" transform="translate(54.47 72.722)"/>
            <g id="Group_853" data-name="Group 853" transform="translate(0 164.579)">
              <path id="Path_1091" data-name="Path 1091" class="cls-7" d="M131.742,296.382l134.109-1L272.542,133.8l-72.18,20.928L123.2,134.8Z" transform="translate(52.225 -133.8)"/>
              <g id="Group_852" data-name="Group 852" transform="translate(0 4.556)">
                <path id="Path_1092" data-name="Path 1092" class="cls-5" d="M29.3,178.409h0a4.942,4.942,0,0,0-.285,5.552l6.834,11.959-1.424,17.226,5.552,12.1,12.1-9.254-5.268-26.48-9.254-11.247A5.3,5.3,0,0,0,29.3,178.409Z" transform="translate(12.018 -120.324)"/>
                <path id="Path_1093" data-name="Path 1093" class="cls-5" d="M47.132,201.791s-8.257,1.566-11.389-.285-4.413-12.955,2.7-13.81,4.271-10.535-1.424-9.681c-5.695.712-18.081,11.816-14.806,25.056,0,0-15.518-1.708-19.931,2.278-4.271,4.129-1.851,7.688,1.139,7.261s16.515.285,16.515.285l-.142,1.566s-13.525-1-16.372.569-4.129,8.4,3.844,7.545S34.746,224,34.746,224l16.23,6.406,9.4-16.087Z" transform="translate(0.02 -119.646)"/>
                <g id="Group_850" data-name="Group 850" transform="translate(41.458)">
                  <path id="Path_1094" data-name="Path 1094" class="cls-7" d="M92.311,269.828c-30.609,0-55.1-17.511-63.211-24.06l21.5-26.48c14.094,11.389,36.446,21.07,56.8,13.81,25.484-8.969,44.845-42.283,56.235-96.1l33.456,7.118c-14.094,67.055-40.432,107.914-78.3,121.3A81.284,81.284,0,0,1,92.311,269.828Z" transform="translate(-29.1 -137)"/>
                </g>
                <path id="Path_1095" data-name="Path 1095" class="cls-5" d="M329.879,178.409h0a4.943,4.943,0,0,1,.285,5.552L323.33,195.92l1.424,17.226-5.552,12.1-12.1-9.254,5.268-26.48,9.254-11.247A5.3,5.3,0,0,1,329.879,178.409Z" transform="translate(130.136 -120.324)"/>
                <path id="Path_1096" data-name="Path 1096" class="cls-5" d="M322.94,201.791s8.257,1.566,11.389-.285,4.413-12.955-2.7-13.81-4.271-10.535,1.424-9.681c5.695.712,18.081,11.816,14.806,25.056,0,0,15.518-1.708,19.931,2.278,4.271,4.129,1.851,7.688-1.139,7.261s-16.514.285-16.514.285l.142,1.566s13.525-1,16.372.569,4.129,8.4-3.844,7.545S335.326,224,335.326,224l-16.23,6.406-9.4-16.087Z" transform="translate(131.238 -119.646)"/>
                <g id="Group_851" data-name="Group 851" transform="translate(291.88)">
                  <path id="Path_1097" data-name="Path 1097" class="cls-7" d="M309.782,269.828c30.609,0,55.1-17.511,63.211-24.06l-21.5-26.48c-14.094,11.389-36.446,21.07-56.8,13.81-25.484-8.969-44.846-42.283-56.235-96.1L205,144.118c14.094,67.055,40.432,107.914,78.3,121.3A80.678,80.678,0,0,0,309.782,269.828Z" transform="translate(-205 -137)"/>
                </g>
              </g>
              <path id="Path_1098" data-name="Path 1098" class="cls-8" d="M182.315,148.5,165.8,157.042l12.243,9.111h8.827l10.108-7.972Z" transform="translate(70.273 -127.572)"/>
              <path id="Path_1099" data-name="Path 1099" class="cls-9" d="M123.2,134.8l47.123,36.873,30.039-16.942,25.626,16.942L272.542,133.8l-72.18,20.928Z" transform="translate(52.225 -133.8)"/>
              <path id="Path_1100" data-name="Path 1100" class="cls-8" d="M177.45,160.9,167.2,242.191l14.806,14.664L197.1,243.33l-10.82-82.43Z" transform="translate(70.866 -122.319)"/>
            </g>
          </g>
          <path id="Path_1101" data-name="Path 1101" class="cls-3" d="M154.437,68.59c-48.263-9.111-36.631-34.058-18.164-50.86s66-24.219,88.4-17.559a28.664,28.664,0,0,0,27.246-7.266c6.66,10.293,12.715,18.77,9.688,27.246,0,0,3.027-.605,7.871-12.109C292.485,56.481,217.221,80.406,154.437,68.59Z" transform="translate(52.028 7.094)"/>
          <path id="Path_1109" data-name="Path 1109" class="cls-3" d="M909.831,598c12.917,33.5-8.073,30.677-12.109,64.987-1.615-12.109-4.037-17.761-4.037-17.761l-1.23-22.146-.788-14.183Z" transform="translate(-723.749 -530.187)"/>
          <path id="Path_1110" data-name="Path 1110" class="cls-3" d="M894.532,592.667c-16.589,33.5,13.277,37.136,18.461,71.446,2.074-12.109,4.547-16.55,4.547-16.55l2.217-23.357,1.012-14.183Z" transform="translate(-588.163 -531.312)"/>
          <g id="Group_857" data-name="Group 857" transform="translate(189.632 102.582)">
            <g id="Group_855" data-name="Group 855" transform="translate(0)">
              <path id="Path_1102" data-name="Path 1102" class="cls-3" d="M159.435,69.687c-8.684-6.407-18.223-2.99-22.067-.285a2.152,2.152,0,0,0,2.42,3.559c.142,0,8.684-5.979,17.084.285a2.4,2.4,0,0,0,1.424.427,1.786,1.786,0,0,0,1.566-.854A2.228,2.228,0,0,0,159.435,69.687Z" transform="translate(-131.787 -66.033)"/>
              <circle id="Ellipse_87" data-name="Ellipse 87" class="cls-10" cx="10.393" cy="10.393" r="10.393" transform="matrix(0.999, -0.044, 0.044, 0.999, 0, 44.414)"/>
            </g>
            <g id="Group_856" data-name="Group 856" transform="translate(93.445)">
              <path id="Path_1103" data-name="Path 1103" class="cls-3" d="M199.647,69.687c8.684-6.407,18.223-2.99,22.067-.285a2.152,2.152,0,0,1-2.42,3.559c-.142,0-8.684-5.979-17.084.285a2.4,2.4,0,0,1-1.424.427,1.786,1.786,0,0,1-1.566-.854A2.367,2.367,0,0,1,199.647,69.687Z" transform="translate(-198.817 -66.033)"/>
              <circle id="Ellipse_88" data-name="Ellipse 88" class="cls-10" cx="10.393" cy="10.393" r="10.393" transform="matrix(0.044, -0.999, 0.999, 0.044, 6.763, 64.368)"/>
            </g>
          </g>
          <g id="Group_858" data-name="Group 858" transform="translate(220.839 158.342)">
            <path id="Path_1104" data-name="Path 1104" class="cls-11" d="M185.424,129.545c-16.657,0-30.324-10.25-30.324-22.921a1.424,1.424,0,1,1,2.847,0c0,11.1,12.244,20.074,27.477,20.074,15.091,0,27.477-8.969,27.477-20.074a1.424,1.424,0,1,1,2.847,0C215.606,119.294,202.081,129.545,185.424,129.545Z" transform="translate(-155.1 -105.2)"/>
          </g>
        </g>
        <g id="Group_864" data-name="Group 864" transform="translate(153.044 362.324)">
          <g id="Group_861" data-name="Group 861" transform="translate(45.017)">
            <g id="Group_860" data-name="Group 860">
              <path id="Path_1105" data-name="Path 1105" class="cls-6" d="M151.5,281.253l119.161-32.175a10,10,0,0,1,6.834,18.792L158.761,299.9Z" transform="translate(-133.847 -248.479)"/>
              <path id="Path_1106" data-name="Path 1106" class="cls-3" d="M139.1,268.8l20.785,2.847L167,289.585,152.2,298.128Z" transform="translate(-139.1 -239.87)"/>
            </g>
          </g>
          <g id="Group_863" data-name="Group 863">
            <g id="Group_862" data-name="Group 862">
              <path id="Path_1107" data-name="Path 1107" class="cls-6" d="M240.052,281.253,120.891,249.078a10,10,0,1,0-6.834,18.792L232.791,299.9Z" transform="translate(-107.479 -248.479)"/>
              <path id="Path_1108" data-name="Path 1108" class="cls-3" d="M221.346,268.8l-20.928,2.847L193.3,289.585l14.806,8.542Z" transform="translate(-71.12 -239.87)"/>
            </g>
          </g>
        </g>
      </g>
    </g>
    <g id="Group_869" data-name="Group 869" transform="translate(1249.052 569.414)">
      <ellipse id="Ellipse_89" data-name="Ellipse 89" class="cls-12" cx="251.461" cy="12.039" rx="251.461" ry="12.039" transform="translate(-8 158.509)"/>
      <g id="Group_873" data-name="Group 873">
        <rect id="Rectangle_1461" data-name="Rectangle 1461" class="cls-13" width="38.791" height="125.737" rx="5" transform="translate(421.353 43.473)"/>
        <path id="Path_1120" data-name="Path 1120" class="cls-13" d="M1747.2,693c-1.4,20.987-5.542,35.313-7.682,40.931s3.407,11.245,7.491,5.886l10.969-25.682Z" transform="translate(-1325.658 -640.164)"/>
        <path id="Path_1121" data-name="Path 1121" class="cls-2" d="M1761.413,653.5s-7.58,20.064-7.58,26.753c0,3.25,1.561,7.58,7.58,7.58s7.8-3.906,7.8-7.58C1769.216,673.1,1761.413,653.5,1761.413,653.5Z" transform="translate(-1320.665 -653.5)"/>
      </g>
    </g>
    <g id="Group_867" data-name="Group 867" transform="translate(1345 628.362)">
      <path id="Path_1111" data-name="Path 1111" class="cls-2" d="M1579.631,697.317s-8.026,30.007-13.711,45.39,26.454,22.741,27.421,0S1579.631,697.317,1579.631,697.317Z" transform="translate(-1530.138 -697.317)"/>
      <rect id="Rectangle_1460" data-name="Rectangle 1460" class="cls-14" width="4.013" height="24.077" rx="2.006" transform="translate(48.155 45.056)"/>
      <path id="Path_1112" data-name="Path 1112" class="cls-15" d="M18.727,0H80.258C89.4,0,98.985,11.481,98.985,22.74s-8.36,22.74-16.5,22.74h-65.1C9.251,45.479,0,33,0,22.74S6.168,0,18.727,0Z" transform="translate(0 63.782)"/>
      <path id="Intersection_4" data-name="Intersection 4" class="cls-16" d="M0,.555A16.71,16.71,0,0,1,4.345,0H66.808a12.236,12.236,0,0,1,4.923,1.1c-5.774,8.107-20.04,17.811-36.6,17.811C18.514,18.908,4.029,7.716,0,.555Z" transform="translate(13.916 63.825)"/>
    </g>
    <g id="Group_868" data-name="Group 868" transform="translate(-87 -44)">
      <path id="Path_1117" data-name="Path 1117" class="cls-17" d="M1692.667,762.5s-8.583-5.667-16.833-4.833-16.167,8.167-16.167,8.167,8.917,5.667,17.167,4.833S1692.667,762.5,1692.667,762.5Z" transform="translate(501.995 -646.782) rotate(25)"/>
      <path id="Path_1118" data-name="Path 1118" class="cls-17" d="M1692.667,762.5s-8.583-5.667-16.833-4.833-16.167,8.167-16.167,8.167,8.917,5.667,17.167,4.833S1692.667,762.5,1692.667,762.5Z" transform="matrix(0.899, -0.438, 0.438, 0.899, -145.351, 819.121)"/>
      <path id="Path_1115" data-name="Path 1115" class="cls-18" d="M1726.167,715.667s7.167,5.5,10,10.833A15.212,15.212,0,0,1,1737.5,737a15.752,15.752,0,0,1,10.333-1.5c6,1.125,13.667,6,13.667,6s-4.208,8.583-8.333,12.833S1745,758.5,1745,758.5a13.592,13.592,0,0,1,4.333,8.833c.708,6-1.5,15.167-1.5,15.167s-8.417-.042-13.833-2.667a18.147,18.147,0,0,1-7.833-7.833s-.875,4.375-6.333,7-15.5,3.5-15.5,3.5-2.042-8.5-1.167-14.5a17.2,17.2,0,0,1,4.667-9.5,13.691,13.691,0,0,1-9.167-4.167c-4.208-4.25-7.667-12.833-7.667-12.833s7.375-4.875,13.333-6a16.519,16.519,0,0,1,10.5,1.5,16.59,16.59,0,0,1,1.667-10.5C1719.333,721.167,1726.167,715.667,1726.167,715.667Z"/>
      <path id="Path_1116" data-name="Path 1116" class="cls-17" d="M1692.667,762.5s-8.583-5.667-16.833-4.833-16.167,8.167-16.167,8.167,8.917,5.667,17.167,4.833S1692.667,762.5,1692.667,762.5Z"/>
      <path id="Path_1119" data-name="Path 1119" class="cls-19" d="M1726.25,739a21.544,21.544,0,0,1,2.917,6.5,8.083,8.083,0,0,1-.833,5.167,13.341,13.341,0,0,1,5-2.667,16.031,16.031,0,0,1,6,0,16.015,16.015,0,0,1-4.667,4.417,10.215,10.215,0,0,1-5.5.917,22.252,22.252,0,0,1,3.75,5.083A11.822,11.822,0,0,1,1734,763.5a11.158,11.158,0,0,1-4.833-2.75,15.393,15.393,0,0,1-2.917-5.417,11,11,0,0,1-2.583,4.583,20.969,20.969,0,0,1-5.333,3.583,14.4,14.4,0,0,1,1.167-5.583,15.8,15.8,0,0,1,3.667-4.583A12.665,12.665,0,0,1,1717.75,752a13.692,13.692,0,0,1-4.083-4,8.73,8.73,0,0,1,5.25-.5,18.764,18.764,0,0,1,5.917,3.167,8.264,8.264,0,0,1-1.167-5.167A19.943,19.943,0,0,1,1726.25,739Z"/>
    </g>
  </g>
</svg>
