


<!--                                                      Credit By:                                                  -->
<!--        __________________________________________________________________________________________________        -->
<!--            ==     == == =   ==     ==     ==   ==  ==   ==   ===   ===      ==      ===  ==     == == =          -->
<!--          ==  ==   ==    ==  ==     ==     ==   ==  ==  ==   == == == ==   ==  ==   == == ==     ==    ==         -->
<!--         ==    ==  == == =   ==     ==     ==   ==  == ==    == == == ==  ==    ==  == == ==     == == =          -->
<!--         == == ==  ==  ==    ==     ==     ==   ==  ==  ==   == == == ==  == == ==  == == ==     ==               -->
<!--         ==    ==  ==    ==  ==     == ==    ===    ==   ==  ==  ===  ==  ==    ==  ==  ===      ==               -->
<!--        __________________________________________________________________________________________________        -->










<svg xmlns="http://www.w3.org/2000/svg" viewBox="0 0 22.549 19.863">
  <defs>
    <style>
      .cls-1 {
        fill: none;
      }

      .cls-2 {
        fill: #fff;
      }
    </style>
  </defs>
  <g id="icons_back" data-name="icons/back" transform="translate(52.642 69.863) rotate(180)">
    <rect id="bg" class="cls-1" width="0.5" height="0.5" transform="translate(32 50)"/>
    <g id="ico" transform="translate(-152.322 -2.409)">
      <path id="union" class="cls-2" d="M8.563,18.818.218,10.31a1.016,1.016,0,0,1,.14-1.394l.258-.265a1.323,1.323,0,0,1,.121-.109L8.9.222a.967.967,0,0,1,1.365.144l.259.265a1.015,1.015,0,0,1,.14,1.393L4.474,8.333H21.255a1.294,1.294,0,1,1,0,2.587H4.349l5.978,6.1a1.015,1.015,0,0,1-.14,1.393l-.258.265a1.159,1.159,0,0,1-.811.366A.761.761,0,0,1,8.563,18.818Z" transform="translate(182.414 53.232)"/>
    </g>
  </g>
</svg>
