


<!--                                                      Credit By:                                                  -->
<!--        __________________________________________________________________________________________________        -->
<!--            ==     == == =   ==     ==     ==   ==  ==   ==   ===   ===      ==      ===  ==     == == =          -->
<!--          ==  ==   ==    ==  ==     ==     ==   ==  ==  ==   == == == ==   ==  ==   == == ==     ==    ==         -->
<!--         ==    ==  == == =   ==     ==     ==   ==  == ==    == == == ==  ==    ==  == == ==     == == =          -->
<!--         == == ==  ==  ==    ==     ==     ==   ==  ==  ==   == == == ==  == == ==  == == ==     ==               -->
<!--         ==    ==  ==    ==  ==     == ==    ===    ==   ==  ==  ===  ==  ==    ==  ==  ===      ==               -->
<!--        __________________________________________________________________________________________________        -->










<svg xmlns="http://www.w3.org/2000/svg" viewBox="0 0 27.928 28.235">
  <defs>
    <style>
      .cls-1, .cls-4 {
        fill: none;
      }

      .cls-1 {
        stroke: #33558b;
      }

      .cls-2 {
        fill: #33558b;
        fill-rule: evenodd;
      }

      .cls-3 {
        stroke: none;
      }
    </style>
  </defs>
  <g id="Group_876" data-name="Group 876" transform="translate(601.928 5795.235) rotate(180)">
    <g id="Group_714" data-name="Group 714" transform="translate(574 5767)">
      <g id="Ellipse_56" data-name="Ellipse 56" class="cls-1" transform="translate(27.928 28.235) rotate(180)">
        <ellipse class="cls-3" cx="13.964" cy="14.118" rx="13.964" ry="14.118"/>
        <ellipse class="cls-4" cx="13.964" cy="14.118" rx="13.464" ry="13.618"/>
      </g>
    </g>
    <path id="Back" class="cls-2" d="M21.852-41.544a.485.485,0,0,1,0-.681l3.489-3.489-9.86,0A.479.479,0,0,1,15-46.2a.485.485,0,0,1,.482-.489l9.86,0-3.489-3.482a.494.494,0,0,1,0-.688.482.482,0,0,1,.688,0l4.315,4.315a.474.474,0,0,1,0,.681L22.54-41.544A.482.482,0,0,1,21.852-41.544Z" transform="translate(609 5735) rotate(180)"/>
  </g>
</svg>
