


<!--                                                      Credit By:                                                  -->
<!--        __________________________________________________________________________________________________        -->
<!--            ==     == == =   ==     ==     ==   ==  ==   ==   ===   ===      ==      ===  ==     == == =          -->
<!--          ==  ==   ==    ==  ==     ==     ==   ==  ==  ==   == == == ==   ==  ==   == == ==     ==    ==         -->
<!--         ==    ==  == == =   ==     ==     ==   ==  == ==    == == == ==  ==    ==  == == ==     == == =          -->
<!--         == == ==  ==  ==    ==     ==     ==   ==  ==  ==   == == == ==  == == ==  == == ==     ==               -->
<!--         ==    ==  ==    ==  ==     == ==    ===    ==   ==  ==  ===  ==  ==    ==  ==  ===      ==               -->
<!--        __________________________________________________________________________________________________        -->










<svg xmlns="http://www.w3.org/2000/svg" viewBox="0 0 25 20">
  <defs>
    <style>
      .cls-1 {
        fill: #63788e;
        fill-rule: evenodd;
      }
    </style>
  </defs>
  <path id="Back" class="cls-1" d="M29.276-31.3a1.011,1.011,0,0,1,0-1.419l7.269-7.269L16-40a1,1,0,0,1-1-1,1.01,1.01,0,0,1,1-1.018l20.541.007-7.269-7.255a1.029,1.029,0,0,1,0-1.433,1,1,0,0,1,1.434,0L39.7-41.71a.987.987,0,0,1,0,1.419l-8.99,8.99A1,1,0,0,1,29.276-31.3Z" transform="translate(40 -31) rotate(180)"/>
</svg>
